<svg width="154" height="57" viewBox="0 0 154 57" fill="none" xmlns="http://www.w3.org/2000/svg">
<path d="M76.716 1.226C83.58 1.226 89.43 6.608 89.586 13.472C89.742 20.492 84.048 26.186 77.106 26.186H38.652C36.468 26.186 34.986 28.37 35.766 30.398L40.836 42.878C41.616 44.516 42.006 46.31 41.772 48.26C41.226 52.55 37.716 56.06 33.426 56.606C29.994 56.996 26.874 55.592 24.924 53.174L4.956 30.944C1.992 27.746 0.354 23.378 0.978 18.62C1.914 11.756 7.686 6.374 14.55 5.828C21.258 5.282 27.108 9.182 29.526 14.954L29.76 15.5C30.852 18.23 33.504 20.102 36.546 20.102H54.72C57.762 20.102 58.932 16.046 56.28 14.408L54.642 13.394C49.572 10.352 44.034 8.324 38.262 7.466C36.39 7.466 34.986 5.906 35.142 4.034C35.298 2.396 36.78 1.226 38.418 1.226H76.716ZM152.79 18.386C153.414 23.144 151.854 27.59 148.89 30.71L128.844 53.018C126.894 55.358 123.774 56.762 120.342 56.372C116.052 55.904 112.542 52.394 112.074 48.104C111.762 46.154 112.152 44.282 112.932 42.722V42.644L118.002 30.242C118.86 28.214 117.378 26.03 115.194 26.03H76.7398C69.3298 26.03 63.4798 19.634 64.3378 12.068C64.9618 6.452 69.4078 1.85 75.0238 1.148C79.9378 0.523998 84.3058 2.708 86.8798 6.296L95.2258 17.06C96.6298 18.854 98.7358 19.868 100.998 19.868H117.3C120.264 19.868 122.916 18.074 124.086 15.266L124.32 14.72C126.66 9.026 132.588 5.126 139.296 5.672C146.16 6.218 151.854 11.6 152.79 18.386Z" fill="white"/>
</svg>
