<svg width="169" height="169" viewBox="0 0 169 169" fill="none" xmlns="http://www.w3.org/2000/svg">
<circle cx="84.5" cy="84.5" r="84.5" fill="#FAFAFA"/>
<path d="M84.2815 45.1705C90.6399 45.1705 96.059 50.156 96.2035 56.5145C96.348 63.0174 91.0734 68.292 84.6427 68.292H49.0211C46.9979 68.292 45.6251 70.3152 46.3476 72.1938L72.8149 124.58C73.5375 126.098 73.8988 127.759 73.682 129.566C73.1762 133.54 69.9248 136.791 65.9508 137.297C62.7715 137.658 59.8813 136.358 58.075 134.118L17.807 72.6996C15.0613 69.7371 13.5439 65.6908 14.122 61.2833C14.989 54.9249 20.3359 49.9393 26.6943 49.4335C32.9082 48.9277 38.3274 52.5405 40.5673 57.8873L40.784 58.3931C41.7956 60.922 44.2523 62.6561 47.0702 62.6561H63.9056C66.7235 62.6561 67.8073 58.8989 65.3507 57.3815L63.8333 56.4422C59.1368 53.6243 54.0067 51.7457 48.6598 50.9508C46.9257 50.9508 45.6251 49.5057 45.7696 47.7716C45.9141 46.2543 47.287 45.1705 48.8043 45.1705H84.2815Z" fill="#1D1D1D"/>
<path d="M154.752 61.0665C155.33 65.4741 153.885 69.5926 151.139 72.4828L110.944 134.19C109.137 136.358 106.247 137.658 103.068 137.297C99.0937 136.864 95.8422 133.612 95.4087 129.638C95.1197 127.832 95.481 126.098 96.2035 124.653V124.58L122.526 72.0493C123.321 70.1706 121.948 68.1475 119.925 68.1475H84.3035C77.4393 68.1475 72.0201 62.2226 72.8149 55.2139C73.393 50.0115 77.5115 45.7485 82.7139 45.0982C87.2659 44.5202 91.3122 46.5433 93.6966 49.867L101.428 59.8382C102.728 61.5001 104.679 62.4394 106.775 62.4394H121.876C124.622 62.4394 127.078 60.7775 128.162 58.1763L128.379 57.6706C130.547 52.3959 136.038 48.7832 142.252 49.289C148.61 49.7948 153.885 54.7804 154.752 61.0665Z" fill="#1D1D1D"/>
<path d="M48.6593 58.5687C53.7643 59.3411 58.6709 61.1418 63.1747 63.8426L64.6832 64.7764L64.6844 64.7772C65.8781 65.5144 65.3077 67.2756 64.0276 67.2756H47.1922C45.0023 67.2756 43.088 65.9286 42.2987 63.9555L42.292 63.9385L42.2847 63.9217L42.0704 63.4215C39.5904 57.5082 33.5846 53.4977 26.6961 54.0578C19.6432 54.6194 13.7211 60.1355 12.7577 67.2001L12.7577 67.2001L12.7567 67.2077C12.1223 72.045 13.7721 76.489 16.7418 79.744L56.9426 141.06L56.983 141.122L57.0294 141.179C59.1511 143.81 62.5418 145.327 66.2421 144.907L66.2521 144.906L66.2621 144.905C70.9144 144.312 74.6999 140.527 75.292 135.875L75.2933 135.864C75.5487 133.736 75.1171 131.789 74.2912 130.055L74.2837 130.039L74.2758 130.023L47.8485 77.7161C47.5503 76.829 48.2027 75.9115 49.1431 75.9115H84.7647C85.4254 75.9115 86.0753 75.8621 86.7109 75.767H120.047C121.003 75.767 121.618 76.6867 121.282 77.5476L94.9845 130.028L94.8255 130.345V130.433C94.0902 132.047 93.7318 133.958 94.0437 135.958C94.5696 140.613 98.364 144.397 103.024 144.907C106.719 145.326 110.099 143.812 112.218 141.27L112.274 141.202L112.322 141.128L152.445 79.5328C155.439 76.3205 156.991 71.796 156.361 66.9909L156.36 66.981C155.397 59.9965 149.553 54.4754 142.494 53.9133C135.623 53.3545 129.532 57.3479 127.118 63.2094L126.905 63.7049L126.902 63.7119L126.9 63.7189C126.042 65.778 124.12 67.0588 121.998 67.0588H106.897C105.26 67.0588 103.747 66.3298 102.733 65.0358C102.732 65.0349 102.732 65.034 102.731 65.0332L96.1195 56.506C95.2715 55.0363 94.1425 53.7473 92.8122 52.7021C90.1383 50.4429 86.5541 49.2339 82.6483 49.7294C82.506 49.7472 82.3645 49.7674 82.2237 49.7899H48.9263C46.7505 49.7899 44.6266 51.3524 44.3984 53.7489L44.3975 53.7577L44.3968 53.7665C44.1846 56.3125 46.0871 58.5011 48.6593 58.5687Z" fill="#FAFAFA" stroke="black" stroke-width="3"/>
</svg>
